<mxfile host="app.diagrams.net" agent="Mozilla/5.0 (Macintosh; Intel Mac OS X 10_15_7) AppleWebKit/537.36 (KHTML, like Gecko) Chrome/132.0.0.0 Safari/537.36" version="26.0.13">
  <diagram name="Page-1" id="_mKImdJtYSdmslTn-wdf">
    <mxGraphModel dx="817" dy="520" grid="1" gridSize="10" guides="1" tooltips="1" connect="1" arrows="1" fold="1" page="1" pageScale="1" pageWidth="850" pageHeight="1100" math="0" shadow="0">
      <root>
        <mxCell id="0" />
        <mxCell id="1" parent="0" />
        <mxCell id="xCPVz_zTYaMDrQWWXTra-14" value="" style="rounded=1;whiteSpace=wrap;html=1;fillColor=#f5f5f5;fontColor=#333333;strokeColor=#666666;" parent="1" vertex="1">
          <mxGeometry x="210" y="155" width="490" height="185" as="geometry" />
        </mxCell>
        <mxCell id="xCPVz_zTYaMDrQWWXTra-7" style="edgeStyle=orthogonalEdgeStyle;rounded=1;orthogonalLoop=1;jettySize=auto;html=1;exitX=1;exitY=0.5;exitDx=0;exitDy=0;curved=0;" parent="1" source="xCPVz_zTYaMDrQWWXTra-1" target="xCPVz_zTYaMDrQWWXTra-4" edge="1">
          <mxGeometry relative="1" as="geometry">
            <mxPoint x="339" y="185" as="sourcePoint" />
            <mxPoint x="424" y="245" as="targetPoint" />
            <Array as="points">
              <mxPoint x="390" y="185" />
              <mxPoint x="390" y="245" />
            </Array>
          </mxGeometry>
        </mxCell>
        <mxCell id="fEIYSw2TDNp2-b858oTf-5" style="edgeStyle=orthogonalEdgeStyle;rounded=0;orthogonalLoop=1;jettySize=auto;html=1;exitX=0;exitY=0.5;exitDx=0;exitDy=0;entryX=0;entryY=0.5;entryDx=0;entryDy=0;curved=1;strokeColor=#808080;startArrow=none;startFill=0;endArrow=none;dashed=1;" edge="1" parent="1" source="xCPVz_zTYaMDrQWWXTra-1" target="xCPVz_zTYaMDrQWWXTra-24">
          <mxGeometry relative="1" as="geometry">
            <Array as="points">
              <mxPoint x="200" y="185" />
              <mxPoint x="200" y="115" />
            </Array>
          </mxGeometry>
        </mxCell>
        <mxCell id="xCPVz_zTYaMDrQWWXTra-1" value="Attitude" style="text;html=1;align=center;verticalAlign=middle;whiteSpace=wrap;rounded=1;strokeColor=default;strokeWidth=0.5;" parent="1" vertex="1">
          <mxGeometry x="248" y="170" width="102" height="30" as="geometry" />
        </mxCell>
        <mxCell id="xCPVz_zTYaMDrQWWXTra-8" style="edgeStyle=orthogonalEdgeStyle;rounded=1;orthogonalLoop=1;jettySize=auto;html=1;exitX=1;exitY=0.5;exitDx=0;exitDy=0;curved=0;entryX=0;entryY=0.5;entryDx=0;entryDy=0;" parent="1" source="xCPVz_zTYaMDrQWWXTra-2" target="xCPVz_zTYaMDrQWWXTra-4" edge="1">
          <mxGeometry relative="1" as="geometry">
            <mxPoint x="430" y="245" as="targetPoint" />
          </mxGeometry>
        </mxCell>
        <mxCell id="xCPVz_zTYaMDrQWWXTra-16" style="edgeStyle=orthogonalEdgeStyle;rounded=0;orthogonalLoop=1;jettySize=auto;html=1;exitX=0.5;exitY=0;exitDx=0;exitDy=0;entryX=0.5;entryY=1;entryDx=0;entryDy=0;endArrow=classic;startFill=1;startArrow=classic;endFill=1;curved=1;" parent="1" source="xCPVz_zTYaMDrQWWXTra-2" target="xCPVz_zTYaMDrQWWXTra-1" edge="1">
          <mxGeometry relative="1" as="geometry" />
        </mxCell>
        <mxCell id="xCPVz_zTYaMDrQWWXTra-17" style="edgeStyle=orthogonalEdgeStyle;rounded=0;orthogonalLoop=1;jettySize=auto;html=1;exitX=0.5;exitY=1;exitDx=0;exitDy=0;entryX=0.5;entryY=0;entryDx=0;entryDy=0;startArrow=classic;startFill=1;" parent="1" source="xCPVz_zTYaMDrQWWXTra-2" target="xCPVz_zTYaMDrQWWXTra-3" edge="1">
          <mxGeometry relative="1" as="geometry" />
        </mxCell>
        <mxCell id="fEIYSw2TDNp2-b858oTf-6" style="edgeStyle=orthogonalEdgeStyle;rounded=0;orthogonalLoop=1;jettySize=auto;html=1;exitX=0;exitY=0.5;exitDx=0;exitDy=0;entryX=0;entryY=0.5;entryDx=0;entryDy=0;curved=1;strokeColor=#808080;startArrow=none;startFill=0;endArrow=none;dashed=1;" edge="1" parent="1">
          <mxGeometry relative="1" as="geometry">
            <mxPoint x="248" y="245" as="sourcePoint" />
            <mxPoint x="215.5" y="114.99999999999997" as="targetPoint" />
            <Array as="points">
              <mxPoint x="196" y="245" />
              <mxPoint x="196" y="115" />
            </Array>
          </mxGeometry>
        </mxCell>
        <mxCell id="xCPVz_zTYaMDrQWWXTra-2" value="Social Norm" style="text;html=1;align=center;verticalAlign=middle;whiteSpace=wrap;rounded=1;strokeColor=default;strokeWidth=0.5;" parent="1" vertex="1">
          <mxGeometry x="248" y="230" width="102" height="30" as="geometry" />
        </mxCell>
        <mxCell id="xCPVz_zTYaMDrQWWXTra-9" style="edgeStyle=orthogonalEdgeStyle;rounded=1;orthogonalLoop=1;jettySize=auto;html=1;exitX=1;exitY=0.5;exitDx=0;exitDy=0;entryX=0;entryY=0.5;entryDx=0;entryDy=0;curved=0;" parent="1" source="xCPVz_zTYaMDrQWWXTra-3" target="xCPVz_zTYaMDrQWWXTra-4" edge="1">
          <mxGeometry relative="1" as="geometry">
            <Array as="points">
              <mxPoint x="390" y="305" />
              <mxPoint x="390" y="245" />
            </Array>
          </mxGeometry>
        </mxCell>
        <mxCell id="xCPVz_zTYaMDrQWWXTra-11" style="edgeStyle=orthogonalEdgeStyle;rounded=0;orthogonalLoop=1;jettySize=auto;html=1;exitX=0.5;exitY=1;exitDx=0;exitDy=0;entryX=0.25;entryY=1;entryDx=0;entryDy=0;curved=1;dashed=1;dashPattern=1 1;" parent="1" edge="1">
          <mxGeometry relative="1" as="geometry">
            <Array as="points">
              <mxPoint x="288.5" y="330" />
              <mxPoint x="569.5" y="330" />
            </Array>
            <mxPoint x="288.5" y="320" as="sourcePoint" />
            <mxPoint x="569.5" y="260" as="targetPoint" />
          </mxGeometry>
        </mxCell>
        <mxCell id="xCPVz_zTYaMDrQWWXTra-12" style="edgeStyle=orthogonalEdgeStyle;rounded=0;orthogonalLoop=1;jettySize=auto;html=1;exitX=1;exitY=0.75;exitDx=0;exitDy=0;curved=1;" parent="1" source="xCPVz_zTYaMDrQWWXTra-3" target="xCPVz_zTYaMDrQWWXTra-4" edge="1">
          <mxGeometry relative="1" as="geometry" />
        </mxCell>
        <mxCell id="xCPVz_zTYaMDrQWWXTra-18" style="edgeStyle=orthogonalEdgeStyle;rounded=0;orthogonalLoop=1;jettySize=auto;html=1;exitX=0;exitY=0.5;exitDx=0;exitDy=0;entryX=0;entryY=0.5;entryDx=0;entryDy=0;curved=1;" parent="1" source="xCPVz_zTYaMDrQWWXTra-3" target="xCPVz_zTYaMDrQWWXTra-1" edge="1">
          <mxGeometry relative="1" as="geometry">
            <Array as="points">
              <mxPoint x="220" y="305" />
              <mxPoint x="220" y="185" />
            </Array>
          </mxGeometry>
        </mxCell>
        <mxCell id="fEIYSw2TDNp2-b858oTf-3" style="edgeStyle=orthogonalEdgeStyle;rounded=0;orthogonalLoop=1;jettySize=auto;html=1;exitX=0;exitY=0.5;exitDx=0;exitDy=0;entryX=0;entryY=0.5;entryDx=0;entryDy=0;curved=1;strokeColor=#808080;startArrow=none;startFill=0;endArrow=none;dashed=1;" edge="1" parent="1">
          <mxGeometry relative="1" as="geometry">
            <mxPoint x="248" y="305" as="sourcePoint" />
            <mxPoint x="215.5" y="114.99999999999997" as="targetPoint" />
            <Array as="points">
              <mxPoint x="190" y="305" />
              <mxPoint x="190" y="115" />
            </Array>
          </mxGeometry>
        </mxCell>
        <mxCell id="xCPVz_zTYaMDrQWWXTra-3" value="Perceived Control" style="text;html=1;align=center;verticalAlign=middle;whiteSpace=wrap;rounded=1;strokeColor=default;strokeWidth=0.5;" parent="1" vertex="1">
          <mxGeometry x="248" y="290" width="102" height="30" as="geometry" />
        </mxCell>
        <mxCell id="xCPVz_zTYaMDrQWWXTra-13" style="edgeStyle=orthogonalEdgeStyle;rounded=0;orthogonalLoop=1;jettySize=auto;html=1;exitX=1;exitY=0.5;exitDx=0;exitDy=0;entryX=0;entryY=0.5;entryDx=0;entryDy=0;" parent="1" source="xCPVz_zTYaMDrQWWXTra-4" target="xCPVz_zTYaMDrQWWXTra-5" edge="1">
          <mxGeometry relative="1" as="geometry" />
        </mxCell>
        <mxCell id="xCPVz_zTYaMDrQWWXTra-4" value="Intention" style="text;html=1;align=center;verticalAlign=middle;whiteSpace=wrap;rounded=1;strokeColor=default;strokeWidth=0.5;" parent="1" vertex="1">
          <mxGeometry x="425" y="230" width="65" height="30" as="geometry" />
        </mxCell>
        <mxCell id="xCPVz_zTYaMDrQWWXTra-5" value="Adaptive Behaviour" style="text;html=1;align=center;verticalAlign=middle;whiteSpace=wrap;rounded=1;strokeColor=default;strokeWidth=0.5;" parent="1" vertex="1">
          <mxGeometry x="550" y="230" width="120" height="30" as="geometry" />
        </mxCell>
        <mxCell id="fEIYSw2TDNp2-b858oTf-2" style="edgeStyle=orthogonalEdgeStyle;rounded=0;orthogonalLoop=1;jettySize=auto;html=1;exitX=0.5;exitY=1;exitDx=0;exitDy=0;dashed=1;strokeColor=#808080;endArrow=none;startFill=0;" edge="1" parent="1" source="xCPVz_zTYaMDrQWWXTra-24">
          <mxGeometry relative="1" as="geometry">
            <mxPoint x="649" y="120" as="targetPoint" />
            <Array as="points">
              <mxPoint x="267" y="115" />
              <mxPoint x="649" y="115" />
            </Array>
          </mxGeometry>
        </mxCell>
        <mxCell id="fEIYSw2TDNp2-b858oTf-17" style="edgeStyle=orthogonalEdgeStyle;rounded=0;orthogonalLoop=1;jettySize=auto;html=1;exitX=0.5;exitY=1;exitDx=0;exitDy=0;entryX=0.5;entryY=0;entryDx=0;entryDy=0;strokeColor=#808080;curved=1;dashed=1;" edge="1" parent="1" source="xCPVz_zTYaMDrQWWXTra-21" target="xCPVz_zTYaMDrQWWXTra-5">
          <mxGeometry relative="1" as="geometry">
            <Array as="points">
              <mxPoint x="649" y="140" />
              <mxPoint x="610" y="140" />
            </Array>
          </mxGeometry>
        </mxCell>
        <mxCell id="xCPVz_zTYaMDrQWWXTra-21" value="&lt;i&gt;Locus of Control&lt;/i&gt;" style="text;html=1;align=center;verticalAlign=middle;whiteSpace=wrap;rounded=1;strokeColor=#7D8A89;strokeWidth=0.5;fillColor=#7D8A89;fontColor=#ffffff;" parent="1" vertex="1">
          <mxGeometry x="598" y="100" width="102" height="30" as="geometry" />
        </mxCell>
        <mxCell id="fEIYSw2TDNp2-b858oTf-16" style="edgeStyle=orthogonalEdgeStyle;rounded=0;orthogonalLoop=1;jettySize=auto;html=1;exitX=0.5;exitY=1;exitDx=0;exitDy=0;strokeColor=#808080;curved=1;dashed=1;entryX=0.5;entryY=0;entryDx=0;entryDy=0;" edge="1" parent="1" source="xCPVz_zTYaMDrQWWXTra-22" target="xCPVz_zTYaMDrQWWXTra-5">
          <mxGeometry relative="1" as="geometry">
            <Array as="points">
              <mxPoint x="518" y="140" />
              <mxPoint x="610" y="140" />
            </Array>
          </mxGeometry>
        </mxCell>
        <mxCell id="xCPVz_zTYaMDrQWWXTra-22" value="&lt;i&gt;Resilience&lt;/i&gt;" style="text;html=1;align=center;verticalAlign=middle;whiteSpace=wrap;rounded=1;strokeColor=#7D8A89;strokeWidth=0.5;fillColor=#7D8A89;fontColor=#ffffff;" parent="1" vertex="1">
          <mxGeometry x="467.5" y="100" width="102" height="30" as="geometry" />
        </mxCell>
        <mxCell id="fEIYSw2TDNp2-b858oTf-13" style="edgeStyle=orthogonalEdgeStyle;rounded=0;orthogonalLoop=1;jettySize=auto;html=1;exitX=0.5;exitY=1;exitDx=0;exitDy=0;strokeColor=#808080;curved=1;entryX=0.5;entryY=0;entryDx=0;entryDy=0;dashed=1;" edge="1" parent="1">
          <mxGeometry relative="1" as="geometry">
            <mxPoint x="457.5" y="230" as="targetPoint" />
            <mxPoint x="392.5" y="130.00000000000006" as="sourcePoint" />
            <Array as="points">
              <mxPoint x="393" y="140" />
              <mxPoint x="458" y="140" />
            </Array>
          </mxGeometry>
        </mxCell>
        <mxCell id="xCPVz_zTYaMDrQWWXTra-23" value="&lt;i&gt;Awareness&lt;/i&gt;" style="text;html=1;align=center;verticalAlign=middle;whiteSpace=wrap;rounded=1;strokeColor=#7D8A89;strokeWidth=0.5;fillColor=#7D8A89;fontColor=#ffffff;" parent="1" vertex="1">
          <mxGeometry x="341.5" y="100" width="102" height="30" as="geometry" />
        </mxCell>
        <mxCell id="fEIYSw2TDNp2-b858oTf-12" style="edgeStyle=orthogonalEdgeStyle;rounded=0;orthogonalLoop=1;jettySize=auto;html=1;exitX=0.5;exitY=1;exitDx=0;exitDy=0;entryX=0.5;entryY=0;entryDx=0;entryDy=0;curved=1;strokeColor=#808080;dashed=1;" edge="1" parent="1" source="xCPVz_zTYaMDrQWWXTra-24" target="xCPVz_zTYaMDrQWWXTra-4">
          <mxGeometry relative="1" as="geometry">
            <Array as="points">
              <mxPoint x="267" y="140" />
              <mxPoint x="458" y="140" />
            </Array>
          </mxGeometry>
        </mxCell>
        <mxCell id="xCPVz_zTYaMDrQWWXTra-24" value="&lt;i&gt;Perception&lt;/i&gt;" style="text;html=1;align=center;verticalAlign=middle;whiteSpace=wrap;rounded=1;strokeColor=#7D8A89;strokeWidth=0.5;fillColor=#7D8A89;fontColor=#ffffff;" parent="1" vertex="1">
          <mxGeometry x="215.5" y="100" width="102" height="30" as="geometry" />
        </mxCell>
        <mxCell id="fEIYSw2TDNp2-b858oTf-22" style="edgeStyle=orthogonalEdgeStyle;rounded=0;orthogonalLoop=1;jettySize=auto;html=1;exitX=0.5;exitY=0;exitDx=0;exitDy=0;curved=1;strokeColor=#303E4C;dashed=1;dashPattern=8 8;" edge="1" parent="1" source="fEIYSw2TDNp2-b858oTf-8">
          <mxGeometry relative="1" as="geometry">
            <mxPoint x="610" y="260" as="targetPoint" />
            <Array as="points">
              <mxPoint x="646" y="360" />
              <mxPoint x="550" y="360" />
              <mxPoint x="550" y="300" />
              <mxPoint x="610" y="300" />
            </Array>
          </mxGeometry>
        </mxCell>
        <mxCell id="fEIYSw2TDNp2-b858oTf-8" value="&lt;i&gt;Access&lt;/i&gt;" style="text;html=1;align=center;verticalAlign=middle;whiteSpace=wrap;rounded=1;strokeColor=#7D8A89;strokeWidth=0.5;fillColor=#303E4C;fontColor=#ffffff;" vertex="1" parent="1">
          <mxGeometry x="595.25" y="380" width="102" height="30" as="geometry" />
        </mxCell>
        <mxCell id="fEIYSw2TDNp2-b858oTf-21" style="edgeStyle=orthogonalEdgeStyle;rounded=0;orthogonalLoop=1;jettySize=auto;html=1;exitX=0.5;exitY=0;exitDx=0;exitDy=0;curved=1;strokeColor=#303E4C;dashed=1;dashPattern=8 8;" edge="1" parent="1" source="fEIYSw2TDNp2-b858oTf-9">
          <mxGeometry relative="1" as="geometry">
            <mxPoint x="610" y="260" as="targetPoint" />
            <Array as="points">
              <mxPoint x="516" y="370" />
              <mxPoint x="550" y="370" />
              <mxPoint x="550" y="300" />
              <mxPoint x="610" y="300" />
            </Array>
          </mxGeometry>
        </mxCell>
        <mxCell id="fEIYSw2TDNp2-b858oTf-20" style="edgeStyle=orthogonalEdgeStyle;rounded=0;orthogonalLoop=1;jettySize=auto;html=1;exitX=0.5;exitY=0;exitDx=0;exitDy=0;curved=1;strokeColor=#303E4C;dashed=1;dashPattern=8 8;" edge="1" parent="1" source="fEIYSw2TDNp2-b858oTf-10">
          <mxGeometry relative="1" as="geometry">
            <mxPoint x="610" y="260" as="targetPoint" />
            <Array as="points">
              <mxPoint x="390" y="370" />
              <mxPoint x="550" y="370" />
              <mxPoint x="550" y="300" />
              <mxPoint x="610" y="300" />
            </Array>
          </mxGeometry>
        </mxCell>
        <mxCell id="fEIYSw2TDNp2-b858oTf-24" style="edgeStyle=orthogonalEdgeStyle;rounded=0;orthogonalLoop=1;jettySize=auto;html=1;exitX=1;exitY=0.5;exitDx=0;exitDy=0;strokeColor=#303E4C;dashed=1;dashPattern=12 12;endArrow=none;startFill=0;" edge="1" parent="1" target="fEIYSw2TDNp2-b858oTf-8">
          <mxGeometry relative="1" as="geometry">
            <mxPoint x="306.75" y="395" as="sourcePoint" />
            <mxPoint x="587.25" y="395" as="targetPoint" />
          </mxGeometry>
        </mxCell>
        <mxCell id="fEIYSw2TDNp2-b858oTf-9" value="&lt;i&gt;Infrastructure&lt;/i&gt;" style="text;html=1;align=center;verticalAlign=middle;whiteSpace=wrap;rounded=1;strokeColor=#7D8A89;strokeWidth=0.5;fillColor=#303E4C;fontColor=#ffffff;" vertex="1" parent="1">
          <mxGeometry x="464.75" y="380" width="102" height="30" as="geometry" />
        </mxCell>
        <mxCell id="fEIYSw2TDNp2-b858oTf-10" value="&lt;i&gt;Education&lt;/i&gt;" style="text;html=1;align=center;verticalAlign=middle;whiteSpace=wrap;rounded=1;strokeColor=#7D8A89;strokeWidth=0.5;fillColor=#303E4C;fontColor=#ffffff;" vertex="1" parent="1">
          <mxGeometry x="338.75" y="380" width="102" height="30" as="geometry" />
        </mxCell>
        <mxCell id="fEIYSw2TDNp2-b858oTf-19" style="edgeStyle=orthogonalEdgeStyle;rounded=0;orthogonalLoop=1;jettySize=auto;html=1;exitX=0.5;exitY=0;exitDx=0;exitDy=0;entryX=0.5;entryY=1;entryDx=0;entryDy=0;curved=1;strokeColor=#303E4C;dashed=1;dashPattern=8 8;" edge="1" parent="1" source="fEIYSw2TDNp2-b858oTf-11" target="xCPVz_zTYaMDrQWWXTra-5">
          <mxGeometry relative="1" as="geometry">
            <Array as="points">
              <mxPoint x="264" y="360" />
              <mxPoint x="550" y="360" />
              <mxPoint x="550" y="300" />
              <mxPoint x="610" y="300" />
            </Array>
          </mxGeometry>
        </mxCell>
        <mxCell id="fEIYSw2TDNp2-b858oTf-11" value="&lt;i&gt;Finance&lt;/i&gt;" style="text;html=1;align=center;verticalAlign=middle;whiteSpace=wrap;rounded=1;strokeColor=#7D8A89;strokeWidth=0.5;fillColor=#303E4C;fontColor=#ffffff;" vertex="1" parent="1">
          <mxGeometry x="212.75" y="380" width="102" height="30" as="geometry" />
        </mxCell>
        <mxCell id="fEIYSw2TDNp2-b858oTf-34" value="" style="group" vertex="1" connectable="0" parent="1">
          <mxGeometry x="180" y="440" width="560.75" height="30" as="geometry" />
        </mxCell>
        <mxCell id="fEIYSw2TDNp2-b858oTf-31" value="" style="group" vertex="1" connectable="0" parent="fEIYSw2TDNp2-b858oTf-34">
          <mxGeometry x="374" width="186.75" height="30" as="geometry" />
        </mxCell>
        <mxCell id="xCPVz_zTYaMDrQWWXTra-15" value="&lt;font style=&quot;color: rgb(77, 77, 77);&quot;&gt;Theory of Planned Behavior&lt;/font&gt;" style="text;html=1;align=center;verticalAlign=middle;whiteSpace=wrap;rounded=0;fontSize=10;fontStyle=2" parent="fEIYSw2TDNp2-b858oTf-31" vertex="1">
          <mxGeometry x="16.75" width="170" height="30" as="geometry" />
        </mxCell>
        <mxCell id="fEIYSw2TDNp2-b858oTf-28" value="" style="rounded=1;whiteSpace=wrap;html=1;fillColor=light-dark(#f5f5f5, #ededed);strokeColor=light-dark(#666666, #ededed);" vertex="1" parent="fEIYSw2TDNp2-b858oTf-31">
          <mxGeometry y="5" width="36.25" height="20" as="geometry" />
        </mxCell>
        <mxCell id="fEIYSw2TDNp2-b858oTf-32" value="" style="group" vertex="1" connectable="0" parent="fEIYSw2TDNp2-b858oTf-34">
          <mxGeometry x="188.25" width="185.62" height="30" as="geometry" />
        </mxCell>
        <mxCell id="fEIYSw2TDNp2-b858oTf-27" value="" style="rounded=1;whiteSpace=wrap;html=1;fillColor=light-dark(#303e4c, #ededed);strokeColor=light-dark(#7c8a89, #ededed);" vertex="1" parent="fEIYSw2TDNp2-b858oTf-32">
          <mxGeometry y="5" width="36.25" height="20" as="geometry" />
        </mxCell>
        <mxCell id="fEIYSw2TDNp2-b858oTf-29" value="&lt;font style=&quot;color: rgb(77, 77, 77);&quot;&gt;Objective Adaptive Capacity&lt;/font&gt;" style="text;html=1;align=center;verticalAlign=middle;whiteSpace=wrap;rounded=0;fontSize=10;fontStyle=2" vertex="1" parent="fEIYSw2TDNp2-b858oTf-32">
          <mxGeometry x="15.620000000000005" width="170" height="30" as="geometry" />
        </mxCell>
        <mxCell id="fEIYSw2TDNp2-b858oTf-33" value="" style="group" vertex="1" connectable="0" parent="fEIYSw2TDNp2-b858oTf-34">
          <mxGeometry width="188.25" height="30" as="geometry" />
        </mxCell>
        <mxCell id="fEIYSw2TDNp2-b858oTf-26" value="" style="rounded=1;whiteSpace=wrap;html=1;fillColor=light-dark(#7c8a89, #ededed);strokeColor=light-dark(#919d9c, #ededed);" vertex="1" parent="fEIYSw2TDNp2-b858oTf-33">
          <mxGeometry y="5" width="36.25" height="20" as="geometry" />
        </mxCell>
        <mxCell id="fEIYSw2TDNp2-b858oTf-30" value="&lt;font style=&quot;color: rgb(77, 77, 77);&quot;&gt;Subjective Adaptive Capacity&lt;/font&gt;" style="text;html=1;align=center;verticalAlign=middle;whiteSpace=wrap;rounded=0;fontSize=10;fontStyle=2" vertex="1" parent="fEIYSw2TDNp2-b858oTf-33">
          <mxGeometry x="18.25" width="170" height="30" as="geometry" />
        </mxCell>
      </root>
    </mxGraphModel>
  </diagram>
</mxfile>
